#N canvas 1282 22 636 1031 24;
#N canvas 2 22 1916 1031 synth 0;
#X obj 285 590 phasor~ 200;
#X obj 285 638 *~ 2;
#X obj 285 686 -~ 1;
#X obj 237 909 vcf~;
#X obj 135 112 hsl 128 15 0.01 1 1 0 empty empty Resonace -2 -8 0 10
-191407 -258113 -1 0 1;
#X obj 486 856 *~ 2000;
#X obj 490 953 +~;
#X obj 135 147 hsl 128 15 0 127 0 0 empty empty Filter_Level -2 -8
0 10 -191407 -260097 -1 0 1;
#X obj 43 602 cos~;
#X obj 43 652 *~ 10;
#X obj 43 704 clip~ -1 1;
#X obj 30 753 *~;
#X obj 468 29 tgl 15 0 empty empty empty 17 7 0 10 -262144 -1 -1 0
1;
#X obj 43 551 phasor~ 200;
#X obj 43 500 * 1;
#X obj 285 548 * 1.02;
#X obj 285 449 mtof;
#X obj 281 353 notein;
#X obj 284 787 *~;
#X obj 492 29 tgl 15 0 empty empty empty 17 7 0 10 -262144 -1 -1 0
1;
#X obj 714 946 dac~;
#X obj 751 802 *~;
#X obj 384 727 / 127;
#X obj 754 857 *~;
#X obj 135 182 hsl 128 15 0 1 0 0 empty empty Volume -2 -8 0 10 -191407
-159808 -1 0 1;
#X obj 956 687 freeverb~;
#X msg 934 560 wet \$1;
#X obj 287 112 hsl 128 15 0 1 0 0 empty empty Wet -2 -8 0 10 -74925
-1 -1 0 1;
#X obj 287 147 hsl 128 15 0 1 0 0 empty empty Dry -2 -8 0 10 -56018
-1 -1 0 1;
#X msg 1053 560 dry \$1;
#X obj 287 182 hsl 128 15 0 1 0 0 empty empty Room\ Size -2 -8 0 10
-216470 -1 -1 0 1;
#X msg 1167 558 roomsize \$1;
#X obj 819 941 pvu~;
#X obj 455 81 vu 15 120 empty empty -1 -8 0 10 -66577 -1 1 0;
#X text 301 68 Reverb;
#X obj 885 871 writesf~;
#X msg 778 120 start;
#X msg 778 163 stop;
#X msg 778 74 open save.wav;
#X obj 546 71 bng 15 250 50 0 empty empty OPEN 17 7 0 10 -73600 -1
-1;
#X obj 544 115 bng 15 250 50 0 empty empty RECORD 15 3 0 10 -253953
-1 -1;
#X obj 545 158 bng 15 250 50 0 empty empty STOP 17 7 0 10 -4051 -1
-1;
#X connect 0 0 1 0;
#X connect 1 0 2 0;
#X connect 2 0 18 0;
#X connect 3 0 21 0;
#X connect 4 0 3 2;
#X connect 5 0 6 0;
#X connect 5 0 3 1;
#X connect 6 0 3 1;
#X connect 7 0 6 1;
#X connect 8 0 9 0;
#X connect 9 0 10 0;
#X connect 10 0 11 0;
#X connect 11 0 3 0;
#X connect 12 0 11 1;
#X connect 13 0 8 0;
#X connect 14 0 13 0;
#X connect 15 0 0 0;
#X connect 16 0 15 0;
#X connect 16 0 14 0;
#X connect 17 0 16 0;
#X connect 17 1 22 0;
#X connect 18 0 3 0;
#X connect 19 0 18 1;
#X connect 21 0 23 0;
#X connect 21 0 25 0;
#X connect 22 0 21 1;
#X connect 23 0 20 0;
#X connect 23 0 20 1;
#X connect 23 0 32 0;
#X connect 23 0 35 0;
#X connect 24 0 23 1;
#X connect 25 0 23 0;
#X connect 25 1 23 0;
#X connect 26 0 25 0;
#X connect 27 0 26 0;
#X connect 28 0 29 0;
#X connect 29 0 25 0;
#X connect 30 0 31 0;
#X connect 31 0 25 0;
#X connect 32 0 33 0;
#X connect 36 0 35 0;
#X connect 36 0 40 0;
#X connect 37 0 35 0;
#X connect 37 0 41 0;
#X connect 38 0 35 0;
#X connect 38 0 39 0;
#X coords 0 -1 1 1 500 200 1 123 17;
#X restore 180 200 pd synth;
