#N canvas 962 57 956 995 36;
#X obj 352 119 bng 15 250 50 0 empty empty empty 17 7 0 10 -262144
-1 -1;
#X obj 377 201 openpanel;
#X obj 396 364 soundfiler;
#X msg 398 282 read -resize \$1 array1;
#N canvas 0 50 450 250 (subpatch) 0;
#X array array1 65559 float 2;
#X coords 0 1 65559 -1 200 140 1;
#X restore 44 213 graph;
#X obj 292 583 hsl 128 15 0 5000 0 0 empty empty empty -2 -8 0 10 -262144
-1 -1 1200 1;
#X obj 120 728 dac~;
#X obj 86 513 tabplay~ array1;
#X obj 133 482 bng 15 250 50 0 empty empty empty 17 7 0 10 -262144
-1 -1;
#X obj 111 640 hip~ 400;
#X connect 0 0 1 0;
#X connect 1 0 3 0;
#X connect 3 0 2 0;
#X connect 5 0 9 1;
#X connect 7 0 9 0;
#X connect 7 1 8 0;
#X connect 8 0 7 0;
#X connect 9 0 6 0;
#X connect 9 0 6 1;
