#N canvas 962 57 956 995 24;
#X obj 26 541 dac~;
#X obj 817 153 noise~;
#X obj 178 156 line~;
#X msg 179 94 1 \, 0 20;
#X obj 262 389 *~ 0.25;
#X obj 47 454 *~ 1;
#X text 532 216 RT60 Time;
#X obj 32 29 receive~ reverb;
#X obj 60 185 *~ 1;
#X obj 233 248 delwrite~ wall1 400;
#X obj 272 299 delread~ wall1 400;
#X text 375 386 Never set over 1 <;
#X obj 255 497 *~;
#X obj 326 471 tgl 15 0 empty empty empty 17 7 0 10 -262144 -1 -1 0
1;
#X connect 3 0 2 0;
#X connect 4 0 5 0;
#X connect 4 0 9 0;
#X connect 4 0 12 0;
#X connect 5 0 0 0;
#X connect 5 0 0 1;
#X connect 7 0 8 0;
#X connect 8 0 5 0;
#X connect 8 0 9 0;
#X connect 10 0 4 0;
#X connect 13 0 12 1;
